<?xml version="1.0" encoding="UTF-8"?>
<!DOCTYPE svg PUBLIC "-//W3C//DTD SVG 1.1//EN" "http://www.w3.org/Graphics/SVG/1.1/DTD/svg11.dtd">
<!-- Creator: CorelDRAW 2020 (64-Bit) -->
<svg xmlns="http://www.w3.org/2000/svg" xml:space="preserve" width="94.418mm" height="33.6299mm" version="1.1" style="shape-rendering:geometricPrecision; text-rendering:geometricPrecision; image-rendering:optimizeQuality; fill-rule:evenodd; clip-rule:evenodd"
viewBox="0 0 1684.54 600"
 xmlns:xlink="http://www.w3.org/1999/xlink"
 xmlns:xodm="http://www.corel.com/coreldraw/odm/2003">
 <defs>
  <style type="text/css">
   <![CDATA[
    .fil0 {fill:black}
    .fil2 {fill:#535454}
    .fil1 {fill:white}
   ]]>
  </style>
 </defs>
 <g id="Layer_x0020_1">
  <metadata id="CorelCorpID_0Corel-Layer"/>
  <g id="_2290519855488">
   <path class="fil0" d="M272.66 35.53c40.14,-4.36 68.82,-13.93 113.45,-13.05 44.04,0.87 62.72,19.68 81.69,44.66 11.62,15.31 19.78,27.61 1.77,41.42 -17.55,13.46 -22.56,-18.57 -105.63,-12.07 -17.55,1.38 -41.56,2.8 -47.86,16.16 0.39,11.51 9.81,22.26 17.96,26.4 10.45,5.3 22.52,5.58 34.12,11.37 -3.23,2.37 -7.51,0.99 -12.33,-0.01l-37.65 -7.57c-53.04,-10.16 -107.98,-21.92 -163.36,-18.2l61.66 9.84c-7.65,18.65 -55.29,28.6 -48.5,143.57 0.86,14.57 2.63,28.57 7.66,41.96 0.56,1.48 1.73,4.51 2.22,5.41l4.5 5.38c-3.71,-23.39 -9.75,-36.57 -6.42,-62.8 44.38,11.62 116.77,66.3 146.56,101.58l29.1 32.89c9.74,10.36 6.86,29.1 9.28,52.35 3.62,34.67 13.66,68.58 27.13,98.74 1.03,-4.32 -8.28,-30.98 -10.47,-39.64 -10.73,-42.53 -16.24,-93.44 -3.28,-136.7 13.03,-43.51 52.49,-101.08 98.71,-112.75 29.87,-7.54 65.73,0.16 86.48,14.73 19.22,13.5 35.87,34.29 49.3,56.35 38.58,63.37 23.62,117.05 28.74,184.96 39.19,30.33 133.75,52.12 193.37,59.8 165.36,21.3 429.42,30.55 597.44,0.65 37.47,-6.67 65.75,-14.84 97.83,-28.11 -11.42,0.61 -28.78,5.62 -40.62,8.02 -14.3,2.9 -28.32,5.05 -42.6,7.51 -154.36,26.54 -509.28,28.65 -655.65,-11.02 -16.39,-4.44 -83.29,-20.93 -90.79,-33.03 -2.92,-4.72 -6.03,-12.19 -8.5,-17.14 -32.94,-66.15 -35.35,-129.22 -61.04,-191.24 -9.96,-24.04 -20.57,-48.18 -36.11,-63.62 -14.56,-14.47 -40.72,-29.11 -65.91,-35.03 -39,-9.18 -55.79,-2.07 -76.98,17.64 -13.58,12.63 -23.47,27.22 -32.04,43.46 -2.65,5.03 -5.23,12.95 -8.68,17.13 -4.32,-2.31 -27.34,-19.13 -30.79,-22.74 2.3,-26.93 20.29,-49.91 31.99,-72.45 -13.79,9.86 -25.18,33.85 -30.94,50.27 -1.35,3.84 -2.22,6.45 -3.52,10.09l-4.51 9.39c-27.72,-13.41 -56.11,-26.42 -86.49,-33.46 7.58,-14.47 99.42,-58.73 112.4,-59.88 4.82,-0.43 37.89,9.88 46.95,11.46l-23.88 -14.03c23.75,-20.78 67.63,-7.25 95.97,0.64 29.7,8.26 159.77,45.06 177.81,59.19 4.89,3.83 6.23,12.84 8.85,19.85 7.78,20.78 21.43,37.71 42.71,48.06 28.98,14.1 89.25,25.34 126.79,26.88 13.75,0.57 55.08,7.72 70.43,10.09 40.7,6.3 101.37,45.15 139.12,67.64 7.01,4.18 14.76,7.43 14.61,15.88 -20.19,4.93 -74.61,-1.55 -98.39,-2.85 -54.1,-2.97 -139.21,-2.69 -188.33,19.98 -15.75,7.27 -20.19,11.3 -30.65,22.14 -6.11,6.32 -22.42,20.25 -20.91,31.67 8.79,19.56 382.5,43.98 425.7,45.37 99.01,3.2 201.62,2.64 300.34,-12.07 57.61,-8.59 136.41,-20.69 182.88,-54.6 14.64,-10.69 19.51,-34.62 19.15,-60.28 -0.38,-27.6 -13.25,-98.49 -34.13,-122.63l-1.71 -1.72c6.56,30.2 14.27,47.39 19.54,83.86 2.13,14.76 4.1,30.94 4.75,46.48 0.32,7.67 0.11,16.43 -1.67,23.71 -10.17,41.66 -125,63.14 -172.1,62.05 0.14,-22.06 55.42,-80.22 61.52,-104.13 -39.35,5.06 -76.42,14.18 -117.23,18.39 -42.8,4.42 -86.24,7.07 -129.91,2.94 -41.5,-3.93 -76.44,-9.46 -115.07,-19.24 -27.53,-6.97 -83.08,-25.33 -92.68,-43.31 -15.38,-28.8 76.58,-30.22 98.97,-30.69 139.33,-2.96 170.55,-1.36 305.97,-31.45 8.68,-1.93 17.52,-4.18 26.92,-6.15 8.58,-1.8 20.29,-6.35 25.97,-7.29 -11.02,-0.54 -33.12,4.72 -44.61,6.74 -29.87,5.26 -59.91,12.79 -90.43,15.73l-33.93 3.73c-2.74,-0.44 -7.61,-1.73 -10.46,-2.53 1.31,-5.69 1.3,-5.69 4.69,-7.17 38.76,-17.01 77.58,-31.33 118.37,-44.07 13.08,-4.08 34.15,-12.61 46.44,-14.61 15.5,19.62 27.21,62.11 55.78,68.56 -13.09,-14.43 -24.57,-28.32 -33.14,-46.72 -4.43,-9.52 -9.62,-21.65 -2.78,-31.54 19.48,-28.17 29.14,-23 42.69,8.17l13.17 35.78c1.75,-25.29 -7.02,-54.64 -19.86,-68.28 -22.88,-24.31 -88.4,-40.25 -122.1,-50.06 -18.97,-5.52 -52.87,-16.01 -73.1,-16.69 0.33,0.24 0.87,0.13 1.05,0.62 0.18,0.5 0.81,0.48 1.06,0.6l20.01 6.02c36.08,10.86 130.62,33.9 150.31,54.94 -2.1,8.72 -17.81,23.84 -25.53,27.75 -5.13,-1.82 -15.7,-11.04 -20.52,-14.77 -19.9,-15.42 -43.1,-28.34 -66.61,-39.12 -23.84,-10.94 -76.03,-34.42 -103.63,-37.43l95.22 44.31c8.44,4.4 14.49,7.31 23.15,11.65 3.45,1.73 7.17,4.13 10.85,5.74l5.94 3.19c10.68,8.3 39.34,19.88 45.34,31.91 -12.57,11.03 -94.22,21.95 -117,25.28 -88.56,12.97 -248.07,17.42 -340.24,13.02 -27.16,-1.3 -37.4,-2.67 -60.44,-11.89 -31.96,-12.79 -69.54,-29.03 -103.42,-38.7 -3.85,-1.1 -1.83,-0.46 -5.74,-1.16 -5.52,-0.98 -0.53,0.21 -2.57,-0.52l-15.51 -6.02c-10.01,-2.89 -18.26,-5.78 -27.93,-8.47 -18.84,-5.24 -37.11,-10.83 -56.59,-15.85 -28.78,-7.41 -218.15,-54.22 -233.07,-49.69 76.57,24.3 146.68,29.79 225.86,60.1 23.33,8.93 46.95,20.04 68.9,27.93l-2.22 0.65c-0.26,0.03 -0.83,0.18 -1.15,0.2 -0.33,0.02 -0.82,0.07 -1.19,0.07 -9.53,0.06 -90.66,-15.57 -114.85,-16.17 -5.56,-0.14 -13.26,-1.62 -21.54,-2.54 -17.8,-1.98 -34.56,-2.77 -52.6,-3.17 -22.8,-0.52 -28.59,2.94 -50.22,-4.56 -21.01,-7.29 -112.46,-34.01 -124.69,-41.03 4.27,-33.61 -44.44,-116.35 -70.56,-132.18 -25.11,-15.21 -53.16,-16.08 -86.46,-12.35 -18.83,2.11 -73.76,10.36 -85.12,17.56z"/>
   <path class="fil0" d="M1168.63 69.23c-7.14,0.14 -7.17,3.79 -13.57,10.24 -3.93,3.96 -9.84,7.32 -10.46,13.82 15.09,22.21 10.8,31.24 -21.29,34.74 -121.09,13.21 -325.68,10.41 -447.76,-8.96 -8.85,-1.4 -21.95,-2.79 -27.12,-9.45 6.9,-7.8 41.54,-13.29 54.88,-18.11 15.16,-5.48 41.73,-12.4 44.78,-25.69 -1.07,-24.16 -160.85,-30.87 -182.26,-31.09 -21.13,-0.22 -48.82,-0.02 -69.32,-2.53 9.22,-6.04 140.95,-14.28 163.95,-15.56 87.18,-4.85 260.19,-12.77 339.98,8.92 24.12,6.55 46.75,11.97 67.64,21.26 28.84,12.84 45.22,25.3 57.71,31l2.85 -3.77c9.08,-15.29 14.46,-12.85 12.92,-20.32 -10.49,-7.48 -49.63,-25.98 -63.15,-30.72 -24.23,-8.49 -50.54,-13.56 -77.92,-16.9 -95.18,-11.6 -269.82,-3.66 -371.22,-0.94 -27.37,0.74 -162.31,2.26 -178.14,12.06 1.98,4.5 1.51,3.9 8.1,5.61 4.57,1.18 8.21,1.79 13.02,2.4 9.74,1.24 11.85,5.26 17.02,11.38 9.02,10.7 17.03,19.57 26.73,30.71 16.68,19.15 31.75,50.41 55.65,60.66 16.37,7.03 85.18,12.05 106.06,10.91l110.18 2.68c111.88,2.1 229.7,2.72 340.28,-8.41 14.99,-1.51 91.95,-6.36 97.15,-19.03 6.26,-15.24 -48.71,-42.82 -56.7,-44.93z"/>
   <path class="fil1" d="M1086.25 336.21l-87.62 -32.48c-46.31,-16.04 -260.94,-96.32 -287.04,-68 -12.63,13.7 18.64,52.69 53.15,63.21 12.63,3.85 81.74,15.78 101.49,18.24 27.9,3.47 205,27.03 220.02,19.03z"/>
   <path class="fil0" d="M0.19 382.63c2.31,-3.1 1.13,0.19 2.46,-5.59 0.01,-0.03 5.48,-71.76 8.97,-90.34 2.52,-13.43 6.76,-29.8 11.93,-41.08 5.2,-11.34 18.42,-24.61 29.23,-12.66 12.35,13.64 22.94,56.22 27.33,78.18 6.37,31.9 6.02,64.85 10.58,97.31 3.86,-11.96 1.49,-52.09 8.39,-59.66 6.37,12.47 10.71,53.15 17.94,72.21 9.67,25.5 20.15,31.9 45.64,43.44 29.67,13.43 107.53,40.57 139.25,45.38 -15.04,-14.94 -124.86,-42.51 -151.01,-74.36 -6.07,-7.39 -27.26,-38.59 -22.59,-51.78 9.64,-0.38 41.51,17.92 51.32,22.94 33.16,16.95 132.79,64.78 161.56,69 -3.74,-3.97 -10.67,-6.38 -15.8,-9.22 -38.43,-21.29 -71.24,-34.46 -114.12,-61.14 -29.95,-18.63 -94.07,-65.76 -105.49,-93.98 -9.55,-23.59 -14.48,-52.2 -23.8,-75.71 -9.32,-23.53 -28.35,-54.55 -50.23,-24.05 -24.86,34.66 -33.16,118.58 -31.56,171.11z"/>
   <path class="fil0" d="M476.65 313.56c-13.28,10.25 -12.33,1.21 -27.12,31.89 -6.48,-0.65 -16.03,-6.74 -23.04,-9.21 11.91,13.34 105.09,54.19 99.56,26.41 -3.32,-16.67 -56.53,-67.09 -67.08,-74.76 4.9,8.83 15.45,16.76 17.68,25.68z"/>
   <path class="fil0" d="M429.92 391.71c-5.55,20.31 -4.24,19.96 -2.48,41.21l-43.53 5.17c30.85,4.29 155.12,-14.92 89.29,-39.38 -8.88,-3.3 -17.08,-5.7 -26.47,-8.15 -15.09,-3.93 -41.08,-10.87 -55.81,-11.4l39.01 12.55z"/>
   <path class="fil0" d="M451.16 520.5l-18.55 22.34c8.73,-4.38 32.65,-24.88 40.14,-32.35 6.45,-6.44 31.53,-30.2 29.37,-44.13 -14.05,-6.31 -38.56,3.83 -50.35,9.5 -22.29,10.72 -5.62,30.08 -0.62,44.63z"/>
   <path class="fil0" d="M517.45 283.32c1.86,19.03 39.99,103.59 56.43,79.06 4.79,-7.15 5.22,-20.09 3.28,-29.96 -2.52,-12.79 -19.95,-19.08 -30.84,-23.55 -4.75,-1.95 -9.72,-2.65 -13.59,-4.36 -6.24,-2.77 -9.07,-15.35 -15.28,-21.19z"/>
   <path class="fil0" d="M606.49 360.11c-6.12,8.85 -22.55,77.36 2.15,61.43 18.5,-11.93 9.65,-29.5 -0.07,-43.51 -4.64,-6.68 -2.37,-7.73 -2.07,-17.91z"/>
   <path class="fil0" d="M62.83 407.91c7.65,-5.47 7.39,-23.35 7,-32.39 -0.45,-10.72 -2.44,-25.99 -8.08,-31.62 -8.87,3.67 -8.18,21.84 -7.84,31.6 0.37,10.69 0.48,26.92 8.92,32.4z"/>
   <path class="fil2" d="M1125.81 77.83c0.27,0.3 0.73,0.3 0.88,0.83l3.57 2.89c2.34,1.71 3.26,2.26 5.2,3.77 1.78,1.38 2.52,1.96 4.13,3.36l3.28 3.01c0.23,0.21 0.68,0.62 0.87,0.8 0.19,0.18 0.57,0.56 0.87,0.81 0.61,-6.5 6.52,-9.86 10.46,-13.82 6.4,-6.45 6.42,-10.1 13.57,-10.24l-27.05 -15.49c1.54,7.48 -3.84,5.03 -12.92,20.32l-2.85 3.77z"/>
  </g>
 </g>
</svg>
